SplineFontDB: 3.2
FontName: ProbaLucijaBurela
FullName: ProbaLucijaBurela
FamilyName: ProbaLucijaBurela
Weight: Regular
Copyright: Copyright (c) 2025, Lucija
UComments: "2025-3-22: Created with FontForge (http://fontforge.org)"
Version: 001.000
ItalicAngle: 0
UnderlinePosition: -100
UnderlineWidth: 50
Ascent: 800
Descent: 200
InvalidEm: 0
LayerCount: 2
Layer: 0 0 "Back" 1
Layer: 1 0 "Fore" 0
XUID: [1021 510 -2067422137 21520]
StyleMap: 0x0000
FSType: 0
OS2Version: 0
OS2_WeightWidthSlopeOnly: 0
OS2_UseTypoMetrics: 1
CreationTime: 1742663979
ModificationTime: 1744991233
OS2TypoAscent: 0
OS2TypoAOffset: 1
OS2TypoDescent: 0
OS2TypoDOffset: 1
OS2TypoLinegap: 90
OS2WinAscent: 0
OS2WinAOffset: 1
OS2WinDescent: 0
OS2WinDOffset: 1
HheadAscent: 0
HheadAOffset: 1
HheadDescent: 0
HheadDOffset: 1
MarkAttachClasses: 1
DEI: 91125
Encoding: iso8859-2
UnicodeInterp: none
NameList: AGL For New Fonts
DisplaySize: -48
AntiAlias: 1
FitToEm: 0
WinInfo: 0 38 9
BeginPrivate: 0
EndPrivate
Grid
-213 1300 m 0
 -213 -700 l 1024
EndSplineSet
BeginChars: 256 29

StartChar: A
Encoding: 65 65 0
Width: 784
Flags: HW
LayerCount: 2
Back
SplineSet
376 662 m 1052
EndSplineSet
Fore
SplineSet
382 664 m 1
 345.841796875 643.405273438 299.129882812 561.45703125 310 480 c 1
 360.666992188 456.665039062 447 465.33203125 487 482 c 1
 486.4921875 626.333984375 441 670 382 664 c 1
48 0 m 1
 113.15234375 227.939453125 161.870117188 450.400390625 256 688 c 1
 300.35277408 777.865378503 442.459227062 834.829797157 542 688 c 9
 760 0 l 1
 553 0 l 25
 483 306 l 17
 417.666992188 385.33203125 368.333007812 385.998046875 303 308 c 1
 302.09765625 308.35546875 236.055664062 2.31640625 247 0 c 0
 248.95703125 -0.4140625 122 0 48 0 c 1
EndSplineSet
Validated: 33
EndChar

StartChar: j
Encoding: 106 106 1
Width: 304
Flags: HW
LayerCount: 2
Fore
SplineSet
191 477 m 0
 143.1640625 509.4453125 66.7734375 454.681640625 124 392 c 0
 147.192382812 366.596679688 185.233398438 387.465820312 193 396 c 0
 211.41015625 416.231445312 220.180664062 457.20703125 191 477 c 0
8 363 m 5
 282 357 l 5
 282 357 287.006004673 -49.6765817749 270 -116 c 0
 250 -194 166 -198 166 -198 c 17
 167.084960938 -196.879882812 163.465820312 -205.095703125 82 -172 c 0
 18 -146 20.7119140625 -96.0009765625 32 -96 c 1
 100 -114 l 1
 116.666992188 -112.921875 133.333007812 -112.817382812 150 -96 c 1
 150 -96 172 -32 174 -22 c 0
 176 -12 188 82 188 86 c 0
 188 90 189 141 187 143 c 0
 185 145 178 220 178 220 c 1
 158 262 160 238 86 246 c 1
 24 242 8.5869140625 334.177734375 8 363 c 5
EndSplineSet
Validated: 41
EndChar

StartChar: a
Encoding: 97 97 2
Width: 577
Flags: HW
LayerCount: 2
Fore
SplineSet
156 282 m 1
 206 345 290 346 360 292 c 1
 423 224 404 153 363 119 c 1
 346 82 214 78 171 116 c 0
 127.698242188 154.266601562 99 220 156 282 c 1
491 2.2783203125 m 1
 506.122070312 1.1044921875 503.71484375 -91.3837890625 498 426 c 1
 456 447.278320312 415.2578125 400.834960938 406 361 c 1
 402.380859375 374.549804688 213.220703125 451.6328125 99 354 c 1
 10.501953125 278.041992188 -3.0419921875 102.55859375 88 30.2783203125 c 1
 138.704101562 -6.3701171875 432.850585938 -10.505859375 452 36.2783203125 c 9
 454 48.2783203125 l 1
 453.388671875 47.94140625 447.2421875 -7.3740234375 450 2.2783203125 c 0
 452 9.2783203125 450 2.2783203125 491 2.2783203125 c 1
EndSplineSet
Validated: 37
EndChar

StartChar: dcroat
Encoding: 240 273 3
Width: 534
Flags: HW
LayerCount: 2
Fore
SplineSet
167 216 m 0
 217 228 295.058772732 204.176318196 261 102 c 0
 243 48 133 60 117 116 c 0
 98.5793389175 180.472313789 131.511193727 207.482686495 167 216 c 0
240 304 m 5
 240 303.532226562 33.0004981507 331.598530018 23 148 c 0
 13.8465160617 -20.0482482259 145.85546875 7.623046875 161 6 c 0
 217 0 337 16 331 40 c 1
 322.106445312 -21.3046875 367 0 393 -10 c 1
 397.466796875 127.45703125 390.918945312 382 390.918945312 382 c 1
 421.668945312 378.247070312 449.592773438 383.930664062 491 388 c 1
 493.053710938 408.456054688 494.2265625 432.43359375 491 474 c 1
 461.8203125 478.952148438 425.951171875 473.767578125 380.881835938 476 c 1
 380.881835938 476 376.919921875 523.396484375 377 548 c 1
 332.198242188 547.663085938 286.66796875 548.49609375 247 554 c 1
 249 464 l 0
 222.545898438 465.231445312 201.490234375 464.918945312 149.58203125 464 c 0
 153 398 l 0
 249.721679688 392 l 0
 240 304 l 5
EndSplineSet
Validated: 37
EndChar

StartChar: Dcroat
Encoding: 208 272 4
Width: 749
Flags: HW
LayerCount: 2
Fore
SplineSet
168 614 m 1
 427 610 l 1
 537 489 613 316 456 131 c 1
 167 130 l 1
 166.090820312 171.126953125 164 334 164 334 c 1
 238 335 l 5
 239 398 l 1
 162 399 l 1
 162 399 169.245117188 553.182617188 168 614 c 1
70 731 m 1
 73 400 l 1
 24 399 l 0
 25 336 l 0
 66.201171875 335 l 1
 66.201171875 335 62.9999993255 5.548828125 63 4 c 0
 63.0000042988 -5.87170942342 440.761517218 -0.706230994035 443 -1 c 0
 610.917961232 -23.0368425253 769.820684824 493.306175111 471 729 c 1
 70 731 l 1
EndSplineSet
Validated: 41
EndChar

StartChar: L
Encoding: 76 76 5
Width: 548
Flags: HW
LayerCount: 2
Fore
SplineSet
49 782 m 1
 41 2 l 1
 41 2 503.810546875 1.607421875 505 0 c 0
 506.763671875 -2.3828125 505.430664062 136.990234375 501 148 c 1
 408.528320312 145.116210938 312.774414062 149.5546875 199 152 c 1
 194.963867188 352.041992188 196.475585938 572.525390625 195 782 c 1
 49 782 l 1
EndSplineSet
Validated: 41
EndChar

StartChar: u
Encoding: 117 117 6
Width: 447
Flags: HW
LayerCount: 2
Fore
SplineSet
57 400 m 1
 27 392 38.7197265625 108.608398438 55 50 c 0
 75 -22 344.047972717 -10.644048231 375 44 c 0
 405.571372283 97.9720234236 424.857363433 397.24412131 397 398 c 1
 397 398 347 468 289 396 c 1
 289 312 320.640625 204.51171875 279 96 c 1
 235.026367188 38.458984375 179.627929688 75.6376953125 167 94 c 0
 139.202148438 134.422851562 151.85546875 398.057617188 153 394 c 1
 151.15234375 394.415039062 87 474 57 400 c 1
EndSplineSet
Validated: 37
EndChar

StartChar: c
Encoding: 99 99 7
Width: 432
Flags: HW
LayerCount: 2
Fore
SplineSet
85 344 m 5
 -6.6357421875 273.399414062 21.107421875 80.009765625 99 16 c 4
 131.810546875 -10.962890625 337 -6 359 16 c 4
 399.497070312 56.4970703125 413 144 341 124 c 5
 253 98 219.000172356 104.000306413 187 122 c 4
 143.420898438 146.512695312 163 231 178 249 c 5
 237.775390625 328.467773438 317 265 348 251 c 5
 391 255 403 320 365 354 c 5
 249.292052462 429.412673277 156.09209014 408.225699939 85 344 c 5
EndSplineSet
Validated: 41
EndChar

StartChar: i
Encoding: 105 105 8
Width: 226
Flags: HW
LayerCount: 2
Fore
SplineSet
78 502 m 1
 37.7685546875 505.788085938 24 468 32 438 c 1
 40 388 120 386 126 434 c 1
 130 472 125.963867188 499.760742188 78 502 c 1
20 380 m 25
 16 0 l 1
 136 0 l 9
 138 380 l 1
 20 380 l 25
EndSplineSet
Validated: 41
EndChar

StartChar: B
Encoding: 66 66 9
Width: 650
Flags: HW
LayerCount: 2
Fore
SplineSet
161 100 m 1
 393 106 l 1
 451 164 433 254 381 314 c 1
 169 316 l 1
 161 100 l 1
153 452 m 1
 371 456 l 1
 447 476 433 626 385 648 c 1
 149 642 l 1
 153 452 l 1
431 372 m 0
 432.158203125 412.174804688 679 216 515 -4 c 1
 515 -4 37 4 37 2 c 0
 37 0 39 718 39 718 c 1
 129 790 353 798 469 710 c 1
 651 510 430.301757812 347.766601562 431 372 c 0
EndSplineSet
Validated: 37
EndChar

StartChar: r
Encoding: 114 114 10
Width: 406
Flags: HW
LayerCount: 2
Fore
SplineSet
72 396 m 1
 72 396 69 2 69 0 c 0
 69 -2 203 -6 203 0 c 0
 203 6 196 331 196 331 c 1
 370 329 l 1
 379.442382812 361.842773438 375.762695312 374.813476562 368 405 c 1
 308.666992188 425.017578125 249.333007812 424.334960938 190 407 c 1
 190 450 l 1
 148.966620552 463.914267226 109.711157016 467.626299968 74 451 c 1
 72 396 l 1
EndSplineSet
Validated: 41
EndChar

StartChar: e
Encoding: 101 101 11
Width: 623
Flags: HW
LayerCount: 2
Fore
SplineSet
286 386 m 1
 400 384 424 332 410 286 c 9
 204 286 l 1
 180 334 208 372 286 386 c 1
92 390 m 1
 20.3544921875 333.221679688 16.5869140625 58.4453125 93 1 c 0
 94.5986328125 -0.2021484375 519 -7 519 1 c 8
 519 9 513 131 513 131 c 1
 199 133 l 1
 158.942382812 170.143554688 170.732421875 203.149414062 197 235 c 1
 477 231 l 5
 546 317 510 350 474 397 c 1
 366 485 206.13671875 474.999023438 92 390 c 1
EndSplineSet
Validated: 41
EndChar

StartChar: l
Encoding: 108 108 12
Width: 286
Flags: HW
LayerCount: 2
Fore
SplineSet
69 746 m 5
 69 746 71 -6 71 0 c 4
 71 6 189 -4 189 0 c 4
 189 4 191 740 191 740 c 5
 69 746 l 5
EndSplineSet
Validated: 41
EndChar

StartChar: Zcaron
Encoding: 174 381 13
Width: 584
Flags: HW
LayerCount: 2
Fore
SplineSet
211 766 m 29
 263 702 l 29
 337 696 l 29
 375 764 l 29
 311 764 l 29
 303 724 l 29
 271 768 l 29
 211 766 l 29
541 0 m 4
 541 6 79 -4 79 0 c 4
 79 4 81 116 81 116 c 29
 347 554 l 5
 97 550 l 5
 93 654 l 5
 517 648 l 5
 429 496 224.426757812 123.23828125 227 132 c 5
 549 136 l 5
 549 136 541 -4 541 0 c 4
EndSplineSet
Validated: 37
EndChar

StartChar: zcaron
Encoding: 190 382 15
Width: 484
Flags: HW
LayerCount: 2
Fore
SplineSet
130 559 m 5
 183 488 l 29
 256 489 l 1
 294 557 l 25
 230 557 l 25
 222 517 l 25
 190 561 l 25
 130 559 l 5
435 0 m 0
 435 6 61 -4 61 0 c 0
 61 4 61 104 61 104 c 1
 269 366 l 1
 31 356 l 1
 33 454 l 1
 406 458 l 1
 318 306 198.426757812 103.23828125 201 112 c 1
 433 116 l 1
 433 116 435 -4 435 0 c 0
EndSplineSet
Validated: 524325
EndChar

StartChar: D
Encoding: 68 68 16
Width: 650
Flags: HW
LayerCount: 2
Fore
SplineSet
152 614 m 1
 414 616 l 1
 524 495 597 316 440 131 c 1
 151 130 l 1
 147.387695312 293.368164062 155.846679688 426.04296875 152 614 c 1
54 746 m 1
 54 746 49 -4 49 0 c 0
 49 4 424.999997211 -0.986742427856 427 -1 c 0
 594.357421875 -2.109375 753.870117188 518.103515625 453 748 c 1
 54 746 l 1
EndSplineSet
Validated: 524325
EndChar

StartChar: cacute
Encoding: 230 263 17
Width: 432
Flags: HW
LayerCount: 2
Fore
SplineSet
163 460 m 5
 251 538 l 5
 307 522 l 5
 211 442 l 5
 163 460 l 5
85 344 m 1
 -6.6357421875 273.399414062 21.107421875 80.009765625 99 16 c 0
 131.810546875 -10.962890625 337 -6 359 16 c 0
 399.497070312 56.4970703125 413 144 341 124 c 1
 253 98 219.000172356 104.000306413 187 122 c 0
 143.420898438 146.512695312 163 231 178 249 c 1
 237.775390625 328.467773438 317 265 348 251 c 1
 391 255 403 320 365 354 c 1
 249.292052462 429.412673277 156.09209014 408.225699939 85 344 c 1
EndSplineSet
Validated: 41
EndChar

StartChar: ccaron
Encoding: 232 269 18
Width: 432
Flags: HW
LayerCount: 2
Fore
SplineSet
167 435 m 5
 139 535 l 4
 184 538 l 4
 202 480 l 4
 234 536 l 4
 259 530 l 5
 279 527 l 5
 235 437 l 5
 167 435 l 5
85 344 m 1
 -6.6357421875 273.399414062 21.107421875 80.009765625 99 16 c 0
 131.810546875 -10.962890625 337 -6 359 16 c 0
 399.497070312 56.4970703125 413 144 341 124 c 1
 253 98 219.000172356 104.000306413 187 122 c 0
 143.420898438 146.512695312 163 231 178 249 c 1
 237.775390625 328.467773438 317 265 348 251 c 1
 391 255 403 320 365 354 c 1
 249.292052462 429.412673277 156.09209014 408.225699939 85 344 c 1
EndSplineSet
Validated: 41
EndChar

StartChar: Cacute
Encoding: 198 262 19
Width: 826
Flags: HW
LayerCount: 2
Fore
SplineSet
270 699 m 5
 358 777 l 5
 414 761 l 5
 318 681 l 5
 270 699 l 5
159 621 m 5
 -13 499 23.0595703125 182.111328125 143 46 c 4
 227.265625 -49.6259765625 612.693359375 39.2958984375 607 46 c 5
 661 64 710 218 588 215 c 5
 461 169 373 91 285 157 c 5
 247 175 67.0947265625 342.4453125 243 485 c 5
 363 571 476 531 556 491 c 5
 706 493 572.623046875 625.34765625 575 621 c 5
 409.583595587 707.503422999 273.466224253 664.696285547 159 621 c 5
EndSplineSet
Validated: 41
EndChar

StartChar: Ccaron
Encoding: 200 268 20
Width: 722
Flags: HW
LayerCount: 2
Fore
SplineSet
279 683 m 1
 251 783 l 0
 296 786 l 0
 314 728 l 0
 346 784 l 0
 371 778 l 1
 391 775 l 1
 347 685 l 1
 279 683 l 1
154 618 m 5
 -18 496 18.0595703125 179.111328125 138 43 c 4
 222.265625 -52.6259765625 607.693359375 36.2958984375 602 43 c 5
 656 61 705 215 583 212 c 5
 456 166 368 88 280 154 c 5
 242 172 62.0947265625 339.4453125 238 482 c 5
 358 568 471 528 551 488 c 5
 701 490 567.623046875 622.34765625 570 618 c 5
 404.583984375 704.50390625 268.465820312 661.696289062 154 618 c 5
EndSplineSet
Validated: 41
EndChar

StartChar: Scaron
Encoding: 169 352 21
Width: 668
Flags: HW
LayerCount: 2
Fore
SplineSet
263 674 m 5
 235 774 l 4
 280 777 l 4
 298 719 l 4
 330 775 l 4
 355 769 l 5
 375 766 l 5
 331 676 l 5
 263 674 l 5
538 80 m 4
 574.1796875 138.060546875 645.7890625 262.470703125 518 374 c 5
 397.696289062 405.149414062 390 416 258 402 c 5
 212.80078125 439.786132812 209.603515625 479.999023438 262 516 c 5
 360.282226562 562.743164062 392.313476562 416.854492188 510 484 c 5
 516 514 528 502 508 568 c 5
 440 672 296.9296875 671.883789062 156 586 c 5
 14.05078125 444.8203125 121.188476562 297.30859375 186 294 c 5
 315.674804688 316.370117188 420 322 450 274 c 5
 456 198 454 192 418 182 c 5
 284.813476562 138.393554688 190.920898438 183.63671875 78 200 c 5
 54 182 42 118 82 64 c 5
 110.329101562 -13.958984375 466.8828125 -34.126953125 538 80 c 4
EndSplineSet
Validated: 41
EndChar

StartChar: scaron
Encoding: 185 353 22
Width: 538
Flags: HW
LayerCount: 2
Fore
SplineSet
198 448 m 1
 170 548 l 0
 215 551 l 0
 233 493 l 0
 265 549 l 0
 290 543 l 1
 310 540 l 1
 266 450 l 1
 198 448 l 1
435 88 m 0
 453.418945312 132.264648438 506.438476562 155.135742188 398 256 c 1
 276.92578125 289.349609375 325.802734375 251.16796875 183 268 c 1
 136.241210938 297.029296875 194.973632812 351.079101562 194 349 c 1
 334.952148438 374.201171875 406 282 382 366 c 1
 382 366 382 395 356 402 c 1
 209 427 111.819335938 412.95703125 77 342 c 1
 9.5576171875 191.875976562 83.0205078125 203.088867188 146 200 c 1
 275.674804688 222.370117188 346 199 349 168 c 1
 351.430664062 154.873046875 341 146 352 164 c 1
 248.473632812 20.8349609375 184 166 90 142 c 1
 42 122 35.740234375 93.771484375 55 63 c 1
 83.3291015625 -14.958984375 383.33984375 -36.15234375 435 88 c 0
EndSplineSet
Validated: 37
EndChar

StartChar: P
Encoding: 80 80 24
Width: 536
Flags: HW
LayerCount: 2
Fore
SplineSet
182 614 m 0
 151.662355756 577.000073262 188.552829418 458.000955572 206 458 c 1
 237 423 297 447 336 470 c 0
 406.949674634 511.84211581 395.330265208 596.465963063 330 640 c 0
 296.964073323 662.014103993 242.138226988 687.344850867 182 614 c 0
80 0 m 1
 76 696 l 1
 75.3310546875 697.698242188 241.492938946 871.868190822 400 688 c 0
 500 572 468.958007812 463.533203125 438 414 c 0
 398 350 277.845703125 383.052734375 268 368 c 0
 250.59375 341.38671875 264.467988802 -6.21893768734 264 0 c 0
 263.849938586 1.99411305843 160 0 80 0 c 1
EndSplineSet
Validated: 524321
EndChar

StartChar: C
Encoding: 67 67 25
Width: 722
Flags: HW
LayerCount: 2
Fore
SplineSet
154 618 m 5
 -18 496 18.0595703125 179.111328125 138 43 c 4
 222.265625 -52.6259765625 607.693359375 36.2958984375 602 43 c 5
 656 61 705 215 583 212 c 5
 456 166 368 88 280 154 c 5
 242 172 62.0947265625 339.4453125 238 482 c 5
 358 568 471 528 551 488 c 5
 701 490 567.623046875 622.34765625 570 618 c 5
 404.583984375 704.50390625 268.465820312 661.696289062 154 618 c 5
EndSplineSet
Validated: 524329
EndChar

StartChar: R
Encoding: 82 82 26
Width: 588
Flags: HW
LayerCount: 2
Fore
SplineSet
278 644 m 25
 278 644 188 662 192 562 c 8
 196 462 196 456 196 456 c 17
 195.072776589 454.528054371 219.585330749 408.391443478 276 412 c 0
 347.324510243 416.562262441 362 448 368 476 c 8
 374 504 362 594 362 594 c 1
 362 594 342 644 310 644 c 0
 278 644 290 644 278 644 c 25
68 660 m 1
 68 660 48.8994023026 706.623089015 190 746 c 0
 276 770 384.561523438 735.236328125 436 682 c 0
 466.317382812 650.623046875 520 480 428 392 c 0
 369.00846088 335.573310407 336.053710938 338.07421875 324 324 c 1
 324 324 538 8 538 0 c 0
 538 -8 368 2 368 0 c 0
 368 -2 204 278 204 278 c 1
 210 0 l 1
 210 0 72 -6 72 0 c 0
 72 6 64 399 68 660 c 1
EndSplineSet
Validated: 524321
EndChar

StartChar: I
Encoding: 73 73 27
Width: 286
Flags: HW
LayerCount: 2
Fore
SplineSet
69 758 m 1
 69 758 71 -6 71 0 c 0
 71 6 221 -4 221 0 c 0
 221 4 217 758 217 758 c 1
 69 758 l 1
EndSplineSet
Validated: 41
EndChar

StartChar: O
Encoding: 79 79 28
Width: 744
Flags: HW
LayerCount: 2
Fore
SplineSet
363 668 m 1
 371.928710938 671.140625 205.501953125 677.552734375 175 492 c 0
 151 346 179 226 179 226 c 25
 179 226 195 116 327 96 c 0
 381.009574256 87.8167311733 467 98 467 98 c 5
 539 142 567.185208632 198.76761801 577 282 c 0
 595.317382812 437.336914062 546.611328125 545.182617188 547 548 c 1
 545.520507812 547.27734375 496.710900225 653.161785024 385 666 c 0
 218.075195312 685.18359375 382 668 363 668 c 1
235 0 m 1
 175 34 177 -4 69 180 c 1
 51 282 39 368 71 544 c 1
 97 598 99 648 221 732 c 1
 299 784 421 776 465 756 c 1
 647 698 645 602 671 526 c 1
 681.383789062 430.017578125 719.649414062 372.09765625 655 158 c 1
 593 52 557.12890625 -5.7587890625 507 -4 c 0
 393 0 232.69140625 -0.4560546875 235 0 c 1
EndSplineSet
Validated: 524325
EndChar
